<svg width="30" height="18" viewBox="0 0 30 18" fill="none" xmlns="http://www.w3.org/2000/svg">
<path d="M28.7682 1.43672C28.9703 0.753125 28.7682 0.25 27.796 0.25H24.5788C23.7595 0.25 23.3826 0.682031 23.1805 1.16328C23.1805 1.16328 21.5418 5.16094 19.2259 7.75313C18.4776 8.50235 18.1335 8.74297 17.7238 8.74297C17.5217 8.74297 17.2104 8.50234 17.2104 7.81875V1.43672C17.2104 0.616406 16.981 0.25 16.3037 0.25H11.2457C10.7323 0.25 10.4264 0.632813 10.4264 0.988281C10.4264 1.76484 11.5844 1.94531 11.7046 4.13281V8.87969C11.7046 9.91875 11.5189 10.1102 11.1092 10.1102C10.0168 10.1102 7.36218 6.09609 5.78909 1.50234C5.47228 0.610938 5.16094 0.25 4.33616 0.25H1.11897C0.201337 0.25 0.015625 0.682031 0.015625 1.16328C0.015625 2.01641 1.10805 6.25469 5.10086 11.8547C7.76091 15.6773 11.5079 17.75 14.9163 17.75C16.9646 17.75 17.2158 17.2906 17.2158 16.4977C17.2158 12.8445 17.0301 12.5 18.057 12.5C18.5322 12.5 19.3515 12.7406 21.2633 14.5836C23.4481 16.7711 23.8086 17.75 25.0321 17.75H28.2493C29.167 17.75 29.6312 17.2906 29.3636 16.3828C28.7518 14.4742 24.617 10.5477 24.4313 10.2852C23.9561 9.67266 24.0927 9.39922 24.4313 8.85235C24.4368 8.84688 28.364 3.3125 28.7682 1.43672Z" fill="white"/>
</svg>
