<svg width="31" height="22" viewBox="0 0 31 22" fill="none" xmlns="http://www.w3.org/2000/svg">
<path d="M30.1585 3.78579C29.8138 2.49243 28.7984 1.47382 27.5092 1.12814C25.1724 0.5 15.802 0.5 15.802 0.5C15.802 0.5 6.43162 0.5 4.09474 1.12814C2.8055 1.47387 1.79012 2.49243 1.44549 3.78579C0.819336 6.13008 0.819336 11.0212 0.819336 11.0212C0.819336 11.0212 0.819336 15.9124 1.44549 18.2566C1.79012 19.55 2.8055 20.5262 4.09474 20.8719C6.43162 21.5 15.802 21.5 15.802 21.5C15.802 21.5 25.1723 21.5 27.5092 20.8719C28.7984 20.5262 29.8138 19.55 30.1585 18.2566C30.7846 15.9124 30.7846 11.0212 30.7846 11.0212C30.7846 11.0212 30.7846 6.13008 30.1585 3.78579ZM12.7373 15.462V6.58043L20.5691 11.0213L12.7373 15.462Z" fill="white"/>
</svg>
